<svg viewBox="0 0 1024 1024" version="1.1" xmlns="http://www.w3.org/2000/svg" class=""><rect fill="#ffffff" width="1024px" height="1024px" x="0" y="0"/><g transform="matrix(2.2799609375,0,0,2.2799609375,216,216)"><g fill="none"><path d="M64 0H128V128H64C28.6538 128 0 99.3462 0 64C0 28.6538 28.6538 0 64 0Z" fill="#000000"/><circle cx="64" cy="64" r="48" stroke="#ffffff" fill="none" stroke-width="3.653571367382254px" stroke-linecap="square"/><path d="M64 0L64 128" stroke="#ffffff" fill="none" stroke-width="3.653571367382254px" stroke-linecap="square"/><path fill-rule="evenodd" clip-rule="evenodd" d="M80 64C80 72.8366 72.8366 80 64 80C55.1634 80 48 72.8366 48 64C48 55.1634 55.1634 48 64 48C72.8366 48 80 55.1634 80 64ZM64 72C68.4183 72 72 68.4183 72 64C72 59.5817 68.4183 56 64 56C59.5817 56 56 59.5817 56 64C56 68.4183 59.5817 72 64 72Z" fill="#ffffff"/></g></g><g transform="matrix(2.2799609375,0,0,2.2799609375,516.165,216)"><rect width="128" height="128" fill="#000000"/><circle cx="96" cy="32" r="11.5" fill="#000000" stroke="#000000" stroke-width="3.653571367382254px" stroke-linecap="square"/><circle cx="96" cy="32" r="9" fill="#ffffff" stroke="#ffffff" stroke-width="3.653571367382254px" stroke-linecap="square"/></g><g transform="matrix(2.2799609375,0,0,2.2799609375,216,516.165)"><g fill="none"><path d="M0 0C0 70.6925 57.3075 128 128 128V0H0Z" fill="#000000"/><line x1="-0.0029152" x2="127.983" y2="127.986" stroke="#ffffff" stroke-linecap="square" fill="none" stroke-width="3.653571367382254px"/><circle cx="96" cy="32" r="11.5" fill="#000000" stroke="#000000" stroke-width="3.653571367382254px" stroke-linecap="square"/><circle cx="96" cy="32" r="9" fill="#ffffff" stroke="#ffffff" stroke-width="3.653571367382254px" stroke-linecap="square"/></g></g><g transform="matrix(2.2799609375,0,0,2.2799609375,516.165,516.165)"><path d="M64 128H0L5.59506e-06 0L64 5.59506e-06C99.3462 8.68512e-06 128 28.6538 128 64C128 99.3462 99.3462 128 64 128Z" fill="#000000"/><circle cx="64" cy="64" r="16" stroke="#ffffff" fill="none" stroke-width="3.653571367382254px" stroke-linecap="square"/><circle cx="32" cy="32" r="11.5" fill="#000000" stroke="#000000" stroke-width="3.653571367382254px" stroke-linecap="square"/><circle cx="32" cy="32" r="9" fill="#ffffff" stroke="#ffffff" stroke-width="3.653571367382254px" stroke-linecap="square"/></g></svg>